<svg width="64" height="64" viewBox="0 0 64 64" fill="none" xmlns="http://www.w3.org/2000/svg">
<rect width="64" height="64" rx="32" fill="#BDB4FF"/>
<mask id="mask0_0_1028" style="mask-type:alpha" maskUnits="userSpaceOnUse" x="14" y="10" width="17" height="44">
<path d="M30.6665 10.6665H14.6665V12.9261L17.7589 46.1556V51.2065L17.8934 51.3394C18.7001 52.9344 20.8514 53.3332 22.7337 53.3332C22.8682 53.3332 23.1371 53.3332 23.2715 53.3332C25.4228 53.2002 27.0363 52.5357 27.5741 51.3394L27.7085 51.2065V45.7568L30.6665 13.3249V10.6665ZM23.1371 51.7382C21.5236 51.8711 19.9102 51.4723 19.3724 50.8077V47.8835C20.3136 48.2823 21.6581 48.5481 22.7337 48.5481C22.8682 48.5481 23.1371 48.5481 23.2715 48.5481C24.3472 48.5481 25.2884 48.2823 25.9606 47.8835V50.6748C25.6917 51.2065 24.6161 51.6052 23.1371 51.7382ZM25.9606 45.6239V45.8898C25.6917 46.2885 24.6161 46.8202 23.1371 46.8202C21.5236 46.9531 19.9102 46.5544 19.3724 45.7568L16.2799 13.3249V12.2615H28.9186V12.9261L25.9606 45.6239Z" fill="#332E54"/>
</mask>
<g mask="url(#mask0_0_1028)">
<rect x="-9.61084" width="64.7395" height="64" fill="#6554E8"/>
</g>
<g clip-path="url(#clip0_0_1028)">
<mask id="mask1_0_1028" style="mask-type:alpha" maskUnits="userSpaceOnUse" x="34" y="10" width="17" height="44">
<path d="M50.6665 13.6313C50.5364 11.5688 46.5039 10.6665 42.7315 10.6665C38.9592 10.6665 34.7966 11.5688 34.6665 13.6313V13.7602V22.9122V50.1106C34.6665 52.173 38.8291 53.2043 42.7315 53.2043C46.634 53.2043 50.7966 52.3019 50.7966 50.1106V22.9122L50.6665 13.6313C50.6665 13.7602 50.6665 13.6313 50.6665 13.6313ZM36.3576 13.6313C36.7478 13.2445 38.8291 12.2133 42.7315 12.2133C46.5039 12.2133 48.5852 13.1156 49.1055 13.6313L49.2356 13.7602C49.2356 13.8891 48.7153 14.1469 48.0649 14.4047C46.8941 14.7914 45.073 15.1781 42.7315 15.1781C40.26 15.1781 38.5689 14.7914 37.5283 14.4047C36.7478 14.1469 36.3576 13.8891 36.3576 13.6313C36.3576 13.7602 36.3576 13.6313 36.3576 13.6313ZM49.1055 22.9122C48.9754 23.2989 46.8941 24.3301 42.7315 24.3301C38.5689 24.3301 36.4876 23.2989 36.3576 22.9122V15.6937C37.9185 16.4671 40.3901 16.8538 42.7315 16.8538C45.073 16.8538 47.5446 16.4671 49.1055 15.6937V22.9122ZM42.7315 51.6574C38.5689 51.6574 36.4876 50.6262 36.3576 50.2395V24.9747C37.9185 25.7481 40.3901 26.1348 42.7315 26.1348C45.073 26.1348 47.5446 25.7481 49.1055 24.9747V50.2395C48.9754 50.6262 46.8941 51.6574 42.7315 51.6574Z" fill="#332E54"/>
</mask>
<g mask="url(#mask1_0_1028)">
<rect x="11.252" y="1.64355" width="62.439" height="61.8731" fill="#6554E8"/>
</g>
</g>
<defs>
<clipPath id="clip0_0_1028">
<rect width="16" height="42.6667" fill="white" transform="translate(34.6665 10.6665)"/>
</clipPath>
</defs>
</svg>
