<svg width="48" height="48" viewBox="0 0 48 48" fill="none" xmlns="http://www.w3.org/2000/svg">
<path fill-rule="evenodd" clip-rule="evenodd" d="M0 24C0 10.74 10.74 0 24 0C37.26 0 48 10.755 48 24C48 37.26 37.26 48 24 48C10.74 48 0 37.26 0 24ZM46.125 24C46.125 11.805 36.195 1.875 24 1.875C11.805 1.875 1.875 11.805 1.875 24C1.875 36.195 11.805 46.125 24 46.125C36.195 46.125 46.125 36.195 46.125 24Z" fill="#6554E8"/>
<path fill-rule="evenodd" clip-rule="evenodd" d="M24.6384 8.51776L24.0639 9L23.4562 8.56057L24.0198 7.78099L24.6384 8.51776ZM29.1933 18.9356C29.2664 16.623 28.2424 14.1942 27.2151 12.3386C26.6032 11.2334 25.9618 10.2821 25.4741 9.60754C25.2298 9.2697 25.0231 8.99989 24.8765 8.81339C24.8031 8.7201 24.7447 8.64756 24.7041 8.59767L24.6569 8.54004L24.6439 8.52439L24.6402 8.51994L24.6384 8.51776C24.6384 8.51776 24.6384 8.51776 24.0639 9C23.4562 8.56057 23.4562 8.56057 23.4562 8.56057L23.4548 8.56253L23.4518 8.56657L23.4417 8.58079L23.4045 8.63323C23.3726 8.67865 23.3265 8.74472 23.2684 8.82972C23.1524 8.99967 22.9881 9.24555 22.7923 9.55352C22.4012 10.1687 21.8817 11.0356 21.3687 12.0427C20.3596 14.0236 19.3068 16.6768 19.4313 19.0476C19.4317 19.0549 19.4321 19.0621 19.4325 19.0694C17.261 18.5175 14.6621 18.8336 12.6366 19.2639C11.5309 19.4988 10.5592 19.7762 9.86372 19.9948C9.51556 20.1042 9.23554 20.1992 9.04134 20.2674C8.94421 20.3014 8.86847 20.3288 8.81633 20.3479L8.75606 20.3703L8.73969 20.3764L8.73361 20.3787C8.73361 20.3787 8.73278 20.379 8.99993 21.0798L8.73361 20.3787L7.86665 20.7092L8.3703 21.4873L8.99993 21.0798C8.3703 21.4873 8.3703 21.4873 8.3703 21.4873L8.37175 21.4896L8.37461 21.494L8.38451 21.5091L8.42085 21.5638C8.45231 21.6108 8.49816 21.6785 8.55761 21.7642C8.67646 21.9355 8.84989 22.179 9.07161 22.4729C9.51438 23.0598 10.1532 23.8524 10.9377 24.6745C12.2344 26.0333 14.0072 27.5565 16.01 28.29C14.8418 29.9387 14.1715 32.005 13.7829 33.7044C13.5466 34.7376 13.4077 35.6667 13.3277 36.3379C13.2877 36.674 13.2623 36.9466 13.2468 37.1367C13.239 37.2317 13.2338 37.3062 13.2304 37.3578L13.2267 37.4178L13.2257 37.4343L13.2255 37.4391L13.2254 37.4406C13.2254 37.4406 13.2254 37.4416 13.9744 37.4797L13.2254 37.4406L13.1783 38.3673L14.0934 38.2202L13.9744 37.4797C14.0934 38.2202 14.0934 38.2202 14.0934 38.2202L14.0958 38.2198L14.1007 38.219L14.118 38.2161L14.1813 38.2053C14.2361 38.1958 14.3153 38.1816 14.4165 38.1626C14.6187 38.1245 14.9088 38.0668 15.265 37.9875C15.9766 37.8291 16.9568 37.5834 18.0318 37.234C20.1403 36.5486 22.7526 35.4212 24.3422 33.6648C25.9318 35.4212 28.5441 36.5486 30.6527 37.234C31.7276 37.5834 32.7079 37.8291 33.4194 37.9875C33.7757 38.0668 34.0657 38.1245 34.268 38.1626C34.3691 38.1816 34.4484 38.1958 34.5031 38.2053L34.5665 38.2161L34.5837 38.219L34.5886 38.2198L34.5901 38.22C34.5901 38.22 34.591 38.2202 34.7101 37.4797L34.5901 38.22L35.5062 38.3673L35.4591 37.4416L34.7101 37.4797C35.4591 37.4416 35.4591 37.4416 35.4591 37.4416L35.459 37.439L35.4587 37.4341L35.4577 37.4172L35.4539 37.3556C35.4504 37.3026 35.445 37.2261 35.437 37.1285C35.421 36.9334 35.3947 36.6537 35.3533 36.3092C35.2704 35.6213 35.1265 34.6701 34.8812 33.6162C34.4732 31.8633 33.7643 29.732 32.5184 28.0763C34.3949 27.2468 36.0457 25.7685 37.2554 24.4695C37.9833 23.6879 38.5738 22.9466 38.9827 22.4005C39.1874 22.127 39.3473 21.9016 39.4568 21.7432C39.5116 21.664 39.5539 21.6014 39.5829 21.558L39.6164 21.5075L39.6255 21.4935L39.629 21.4881C39.629 21.4881 39.6296 21.4873 38.9999 21.0798L39.629 21.4881L40.1332 20.7092L39.2671 20.379L38.9999 21.0798C39.2671 20.379 39.2671 20.379 39.2671 20.379L39.2648 20.3782L39.2602 20.3764L39.2438 20.3703L39.1835 20.3479C39.1314 20.3288 39.0556 20.3014 38.9585 20.2674C38.7643 20.1992 38.4843 20.1042 38.1361 19.9948C37.4407 19.7762 36.4689 19.4988 35.3633 19.2639C33.5291 18.8742 31.2247 18.5782 29.1933 18.9356ZM37.8094 21.4647C37.7695 21.452 37.7285 21.439 37.6864 21.4257C37.024 21.2176 36.0995 20.9538 35.0516 20.7312C32.919 20.2781 30.4181 20.0279 28.5594 20.6321L27.3319 21.0311L27.5931 19.767C28.0184 17.7085 27.0793 15.1902 25.9028 13.0651C25.3277 12.0264 24.7216 11.1268 24.2585 10.4864C24.2064 10.4143 24.1561 10.3455 24.1079 10.2802C24.0916 10.3058 24.075 10.3318 24.0581 10.3583C23.6856 10.9443 23.1915 11.769 22.7052 12.7236C21.7157 14.6662 20.8267 17.0171 20.9292 18.9689C20.9493 19.3503 21.0004 19.6933 21.0743 20.0018L21.4292 21.4827L20.0389 20.8613C19.8545 20.7789 19.6554 20.702 19.4405 20.6321C17.5817 20.0279 15.0808 20.2781 12.9483 20.7312C11.9004 20.9538 10.9759 21.2176 10.3135 21.4257C10.2714 21.439 10.2304 21.452 10.1905 21.4647C10.2159 21.4988 10.2421 21.5338 10.2691 21.5695C10.6866 22.123 11.288 22.8689 12.0229 23.639C13.5198 25.2075 15.4603 26.7585 17.4532 27.142L18.7967 27.4006L17.8561 28.3941C16.4933 29.8338 15.6953 32.0701 15.2452 34.0388C15.0235 35.0083 14.8925 35.8833 14.8172 36.5154C14.8158 36.5274 14.8144 36.5393 14.813 36.5511C14.8539 36.5422 14.8959 36.5329 14.939 36.5233C15.6168 36.3724 16.5493 36.1386 17.5681 35.8075C19.6415 35.1336 21.9324 34.0998 23.24 32.6472C23.4264 32.4402 23.5865 32.236 23.7238 32.0359L24.3422 31.1346L24.9606 32.0359C25.098 32.236 25.2581 32.4402 25.4444 32.6472C26.752 34.0998 29.043 35.1336 31.1163 35.8075C32.1352 36.1386 33.0677 36.3724 33.7454 36.5233C33.7885 36.5329 33.8305 36.5422 33.8715 36.5511C33.869 36.5305 33.8666 36.5096 33.864 36.4885C33.786 35.8403 33.6503 34.9447 33.4202 33.9562C32.9527 31.9475 32.1246 29.6869 30.7131 28.2758L29.8125 27.3753L31.0368 27.0244C32.9472 26.4768 34.7706 24.9367 36.1577 23.4472C36.8406 22.7139 37.3968 22.0159 37.7819 21.5015C37.7912 21.4891 37.8003 21.4769 37.8094 21.4647ZM24.3307 23.4311C23.1583 23.4311 22.2079 24.3815 22.2079 25.5538C22.2079 26.7262 23.1583 27.6766 24.3307 27.6766C25.5031 27.6766 26.4535 26.7262 26.4535 25.5538C26.4535 24.3815 25.5031 23.4311 24.3307 23.4311ZM20.7079 25.5538C20.7079 23.553 22.3299 21.9311 24.3307 21.9311C26.3315 21.9311 27.9535 23.553 27.9535 25.5538C27.9535 27.5546 26.3315 29.1766 24.3307 29.1766C22.3299 29.1766 20.7079 27.5546 20.7079 25.5538Z" fill="#6554E8"/>
<path fill-rule="evenodd" clip-rule="evenodd" d="M39.5308 41.3426L6.96848 8.78033L8.02914 7.71967L40.5914 40.282L39.5308 41.3426Z" fill="#6554E8"/>
</svg>
