<svg width="24" height="24" viewBox="0 0 24 24" fill="none" xmlns="http://www.w3.org/2000/svg">
<mask id="mask0_0_1084" style="mask-type:alpha" maskUnits="userSpaceOnUse" x="4" y="4" width="16" height="16">
<path d="M12.0029 17.9727C12.5562 17.9727 13.0135 18.427 13.0137 18.9834C13.0137 19.5399 12.5562 19.9999 12.0029 20C11.4447 20 10.9971 19.5448 10.9971 18.9834C10.9972 18.4221 11.4496 17.9727 12.0029 17.9727ZM12.0029 18.5771C11.7769 18.5771 11.5988 18.7609 11.5986 18.9834C11.5986 19.2109 11.7816 19.3955 12.0029 19.3955C12.2242 19.3954 12.4121 19.2108 12.4121 18.9834C12.4072 18.7609 12.2241 18.5772 12.0029 18.5771ZM5.01074 13.8047C5.56876 13.8048 6.02135 14.26 6.02148 14.8164C6.02148 15.3729 5.56403 15.8329 5.01074 15.833C4.45255 15.833 4 15.3778 4 14.8164C4.00013 14.2551 4.45263 13.8047 5.01074 13.8047ZM18.9941 13.8057C19.5521 13.8058 19.9999 14.26 20 14.8164C20 15.3729 19.5474 15.8329 18.9941 15.833C18.4359 15.833 17.9834 15.3778 17.9834 14.8164C17.9835 14.2551 18.436 13.8057 18.9941 13.8057ZM18.9941 14.4102C18.7681 14.4102 18.5851 14.5939 18.585 14.8164C18.585 15.0439 18.768 15.2285 18.9941 15.2285C19.2202 15.2284 19.3984 15.0438 19.3984 14.8164C19.3983 14.594 19.2153 14.4103 18.9941 14.4102ZM5.01074 14.4102C4.78466 14.4102 4.60169 14.5939 4.60156 14.8164C4.60156 15.0439 4.78458 15.2275 5.01074 15.2275C5.23681 15.2274 5.41992 15.0438 5.41992 14.8164C5.41499 14.594 5.23192 14.4103 5.01074 14.4102ZM12.0029 10.9355C12.5562 10.9356 13.0135 11.3899 13.0137 11.9463C13.0137 12.5028 12.5562 12.9628 12.0029 12.9629C11.4447 12.9629 10.9971 12.5077 10.9971 11.9463C10.9972 11.385 11.4496 10.9355 12.0029 10.9355ZM12.0029 11.54C11.7769 11.54 11.5988 11.7238 11.5986 11.9463C11.5986 12.1738 11.7816 12.3584 12.0029 12.3584C12.2242 12.3583 12.4121 12.1737 12.4121 11.9463C12.4072 11.7238 12.2241 11.5401 12.0029 11.54ZM5.01074 7.83301C5.56884 7.83312 6.02148 8.28824 6.02148 8.84473C6.02145 9.40119 5.56401 9.86121 5.01074 9.86133C4.45257 9.86133 4.00003 9.4061 4 8.84473C4 8.28333 4.45255 7.83301 5.01074 7.83301ZM18.9941 7.83301C19.5522 7.83312 20 8.28824 20 8.84473C19.9999 9.40111 19.5473 9.86023 18.9941 9.86035C18.436 9.86035 17.9835 9.40602 17.9834 8.84473C17.9834 8.28333 18.4359 7.83301 18.9941 7.83301ZM5.01074 8.43848C4.78458 8.43848 4.60156 8.6221 4.60156 8.84473C4.60159 9.07216 4.7846 9.25586 5.01074 9.25586C5.23679 9.25574 5.41989 9.07209 5.41992 8.84473C5.41511 8.62217 5.232 8.4386 5.01074 8.43848ZM18.9941 8.4375C18.768 8.4375 18.585 8.6221 18.585 8.84473C18.5851 9.07209 18.7681 9.25586 18.9941 9.25586C19.2201 9.25574 19.3983 9.07201 19.3984 8.84473C19.3984 8.62217 19.2154 8.43762 18.9941 8.4375ZM12.0029 4C12.5562 4.00008 13.0137 4.45521 13.0137 5.01172C13.0135 5.56813 12.5562 6.02726 12.0029 6.02734C11.4448 6.02734 10.9972 5.57301 10.9971 5.01172C10.9971 4.45032 11.4495 4 12.0029 4ZM12.0029 4.60449C11.7768 4.60449 11.5986 4.78909 11.5986 5.01172C11.5988 5.23908 11.7817 5.42285 12.0029 5.42285C12.2241 5.42277 12.412 5.23903 12.4121 5.01172C12.4073 4.78431 12.2242 4.60457 12.0029 4.60449Z" fill="#332E54"/>
</mask>
<g mask="url(#mask0_0_1084)">
<rect x="0.285156" y="0.0410156" width="23.0977" height="23.2304" fill="#6554E8"/>
</g>
</svg>
